# xmcd
#
# Track frame offsets:
#	150
#	17984
#	33723
#	47551
#	62098
#	77812
#	95476
#	109232
#	123751
#	141642
#	163349
#	178194
#	190362
#	205015
#	233058
#
# Disc length: 4440
#
# Revision: 2
# Processed by: cddbd v1.5.1PL0 Copyright (c) Steve Scherf et al.
# Submitted via: audiograbber 1.83.01
# Normalized: r1:DSETVAR1
#
DISCID=da11560f
DTITLE=Various Artist - Goldene Schlagerparade 6/2004
DYEAR=2004
DGENRE=Schlager
TTITLE0=Die Seer - Über'n Berg
TTITLE1=Claudia Jung and Anna - Heut fliegt ein Engel durch die Nacht
TTITLE2=Die Flippers - Wetten dass ...
TTITLE3=Nachtfalken - Wieder Sonne in meinem Herzen
TTITLE4=Gaby Albrecht - Das Salz im Meer
TTITLE5=Vicky Leandros - Das Lied von Zorba
TTITLE6=Nockalm Quintett - Prinz Rosenherz
TTITLE7=Hansi Hinterseer - Hände zum Himmel
TTITLE8=Juliane Werding - Lass es geschehn
TTITLE9=Die Stimmen (Die deutsche Stimme 2003) - Diese Nacht
TTITLE10=Trenkwalder - Tiroler Herz
TTITLE11=Tattoo - Regen und Sonne
TTITLE12=Steirerbluat - Der Sommer geht
TTITLE13=Roger Whittaker - Du warst mein schönster Traum
TTITLE14=data - Daten-CD
EXTD=
EXTT0=
EXTT1=
EXTT2=
EXTT3=
EXTT4=
EXTT5=
EXTT6=
EXTT7=
EXTT8=
EXTT9=
EXTT10=
EXTT11=
EXTT12=
EXTT13=
EXTT14=
PLAYORDER=
